<svg viewBox="0 0 2475 2475" width="100%" height="100%" xmlns="http://www.w3.org/2000/svg" xmlns:xlink="http://www.w3.org/1999/xlink" xml:space="preserve" overflow="hidden"><g><g><path d="M1237.5 0C553.781 0 0 553.781 0 1237.5 0 1785.09 354.234 2247.61 846.141 2411.58 908.016 2422.41 931.219 2385.28 931.219 2352.8 931.219 2323.41 929.672 2225.95 929.672 2122.31 618.75 2179.55 538.312 2046.52 513.562 1976.91 499.641 1941.33 439.312 1831.5 386.719 1802.11 343.406 1778.91 281.531 1721.67 385.172 1720.12 482.625 1718.58 552.234 1809.84 575.438 1846.97 686.812 2034.14 864.703 1981.55 935.859 1949.06 946.688 1868.62 979.172 1814.48 1014.75 1783.55 739.406 1752.61 451.688 1645.88 451.688 1172.53 451.688 1037.95 499.641 926.578 578.531 839.953 566.156 809.016 522.844 682.172 590.906 512.016 590.906 512.016 694.547 479.531 931.219 638.859 1030.22 611.016 1135.41 597.094 1240.59 597.094 1345.78 597.094 1450.97 611.016 1549.97 638.859 1786.64 477.984 1890.28 512.016 1890.28 512.016 1958.34 682.172 1915.03 809.016 1902.66 839.953 1981.55 926.578 2029.5 1036.41 2029.5 1172.53 2029.5 1647.42 1740.23 1752.61 1464.89 1783.55 1509.75 1822.22 1548.42 1896.47 1548.42 2012.48 1548.42 2178 1546.88 2311.03 1546.88 2352.8 1546.88 2385.28 1570.08 2423.95 1631.95 2411.58 2120.77 2247.61 2475 1783.55 2475 1237.5 2475 553.781 1921.22 0 1237.5 0Z" fill="#1B1F23" fill-rule="evenodd" fill-opacity="1"/><path d="M2190.29 1971.85 2268.65 2345.21 1905.67 2227.84Z" stroke="#1B1F23" stroke-width="6.875" stroke-linecap="butt" stroke-linejoin="miter" stroke-miterlimit="8" stroke-opacity="1" fill="#1B1F23" fill-rule="evenodd" fill-opacity="1"/></g></g></svg>